<mxfile host="app.diagrams.net" modified="2024-04-07T19:52:33.702Z" agent="Mozilla/5.0 (Windows NT 10.0; Win64; x64) AppleWebKit/537.36 (KHTML, like Gecko) Chrome/123.0.0.0 Safari/537.36 Edg/123.0.0.0" etag="Q6CiMOEb27iGuOCW6mjY" version="24.2.2" type="github">
  <diagram id="3228e29e-7158-1315-38df-8450db1d8a1d" name="Page-1">
    <mxGraphModel dx="3515" dy="2553" grid="1" gridSize="10" guides="1" tooltips="1" connect="1" arrows="1" fold="1" page="1" pageScale="1" pageWidth="1169" pageHeight="827" background="none" math="0" shadow="0">
      <root>
        <mxCell id="0" />
        <mxCell id="1" parent="0" />
        <mxCell id="21531" value="" style="ellipse;fillColor=#F08705;opacity=60;strokeColor=none;html=1;fontColor=#FFFFFF;gradientColor=default;" parent="1" vertex="1">
          <mxGeometry x="339.5" y="308.5" width="500" height="500" as="geometry" />
        </mxCell>
        <mxCell id="21532" value="" style="ellipse;fillColor=#12AAB5;opacity=60;strokeColor=none;html=1;fontColor=#FFFFFF;" parent="1" vertex="1">
          <mxGeometry x="179.5" y="18.5" width="500" height="500" as="geometry" />
        </mxCell>
        <mxCell id="21533" value="" style="ellipse;fillColor=#e85642;opacity=60;strokeColor=none;html=1;fontColor=#FFFFFF;fillOpacity=100;" parent="1" vertex="1">
          <mxGeometry x="489.5" y="18.5" width="500" height="500" as="geometry" />
        </mxCell>
        <mxCell id="21534" value="Invention" style="text;fontSize=24;align=center;verticalAlign=middle;html=1;fontColor=#FFFFFF;" parent="1" vertex="1">
          <mxGeometry x="299.5" y="228.5" width="190" height="70" as="geometry" />
        </mxCell>
        <mxCell id="21535" value="Revolution" style="text;fontSize=24;align=center;verticalAlign=middle;html=1;fontColor=#FFFFFF;" parent="1" vertex="1">
          <mxGeometry x="699.5" y="228.5" width="190" height="70" as="geometry" />
        </mxCell>
        <mxCell id="21536" value="Tradition" style="text;fontSize=24;align=center;verticalAlign=middle;html=1;fontColor=#FFFFFF;" parent="1" vertex="1">
          <mxGeometry x="499.5" y="558.5" width="190" height="70" as="geometry" />
        </mxCell>
        <mxCell id="21537" value="Military" style="text;align=center;html=1;fontColor=#FFFFFF;fontSize=16;" parent="1" vertex="1">
          <mxGeometry x="569.5" y="240" width="40" height="40" as="geometry" />
        </mxCell>
        <mxCell id="21538" value="Conflict" style="text;align=center;html=1;fontColor=#FFFFFF;fontSize=16;" parent="1" vertex="1">
          <mxGeometry x="460" y="380" width="40" height="40" as="geometry" />
        </mxCell>
        <mxCell id="21539" value="Chaos" style="text;align=center;html=1;fontColor=#FFFFFF;fontSize=16;" parent="1" vertex="1">
          <mxGeometry x="670" y="394" width="40" height="40" as="geometry" />
        </mxCell>
        <mxCell id="21540" value="Balance" style="text;align=center;html=1;fontColor=#FFFFFF;fontSize=16;" parent="1" vertex="1">
          <mxGeometry x="564.5" y="360" width="40" height="40" as="geometry" />
        </mxCell>
        <mxCell id="AYsJUP25HjjWIwSGqkH6-21540" value="" style="ellipse;whiteSpace=wrap;html=1;aspect=fixed;fillColor=#fff2cc;strokeColor=#d6b656;fillStyle=auto;shadow=0;fillOpacity=100;opacity=60;gradientColor=#ffd966;" vertex="1" parent="1">
          <mxGeometry x="10" y="368.5" width="450" height="450" as="geometry" />
        </mxCell>
        <mxCell id="AYsJUP25HjjWIwSGqkH6-21541" value="" style="ellipse;whiteSpace=wrap;html=1;aspect=fixed;fillColor=#fa6800;strokeColor=#C73500;fillStyle=auto;shadow=0;fillOpacity=100;opacity=60;fontColor=#000000;gradientColor=default;" vertex="1" parent="1">
          <mxGeometry x="689.5" y="340" width="450" height="450" as="geometry" />
        </mxCell>
        <mxCell id="AYsJUP25HjjWIwSGqkH6-21543" value="" style="ellipse;whiteSpace=wrap;html=1;aspect=fixed;fillColor=#dae8fc;strokeColor=#6c8ebf;fillStyle=auto;shadow=0;fillOpacity=100;opacity=60;gradientColor=#7ea6e0;" vertex="1" parent="1">
          <mxGeometry x="-150.5" y="68.5" width="450" height="450" as="geometry" />
        </mxCell>
        <mxCell id="AYsJUP25HjjWIwSGqkH6-21544" value="" style="ellipse;whiteSpace=wrap;html=1;aspect=fixed;fillColor=#ffcc99;strokeColor=#36393d;fillStyle=auto;shadow=0;fillOpacity=100;opacity=60;gradientColor=default;" vertex="1" parent="1">
          <mxGeometry x="10" y="-210" width="450" height="450" as="geometry" />
        </mxCell>
        <mxCell id="AYsJUP25HjjWIwSGqkH6-21545" value="" style="ellipse;whiteSpace=wrap;html=1;aspect=fixed;fillColor=#008a00;strokeColor=#005700;fillStyle=auto;shadow=0;fillOpacity=100;opacity=60;fontColor=#ffffff;" vertex="1" parent="1">
          <mxGeometry x="339.5" y="-290" width="450" height="450" as="geometry" />
        </mxCell>
        <mxCell id="AYsJUP25HjjWIwSGqkH6-21546" value="" style="ellipse;whiteSpace=wrap;html=1;aspect=fixed;fillColor=#6a00ff;strokeColor=#3700CC;fillStyle=auto;shadow=0;fillOpacity=100;opacity=60;fontColor=#ffffff;gradientColor=default;" vertex="1" parent="1">
          <mxGeometry x="670" y="-270" width="450" height="450" as="geometry" />
        </mxCell>
        <mxCell id="AYsJUP25HjjWIwSGqkH6-21547" value="" style="ellipse;whiteSpace=wrap;html=1;aspect=fixed;fillColor=#0050ef;strokeColor=#001DBC;fillStyle=auto;shadow=0;fillOpacity=100;opacity=60;fontColor=#ffffff;gradientColor=default;" vertex="1" parent="1">
          <mxGeometry x="880" y="38.5" width="450" height="450" as="geometry" />
        </mxCell>
        <mxCell id="AYsJUP25HjjWIwSGqkH6-21548" value="" style="ellipse;whiteSpace=wrap;html=1;aspect=fixed;fillColor=#e6d0de;fillStyle=auto;shadow=0;fillOpacity=100;opacity=60;strokeColor=#996185;gradientColor=#d5739d;" vertex="1" parent="1">
          <mxGeometry x="249.5" y="620" width="450" height="450" as="geometry" />
        </mxCell>
        <mxCell id="AYsJUP25HjjWIwSGqkH6-21549" value="" style="ellipse;whiteSpace=wrap;html=1;aspect=fixed;fillColor=#e3c800;strokeColor=#B09500;fillStyle=auto;shadow=0;fillOpacity=100;opacity=60;fontColor=#000000;gradientColor=default;" vertex="1" parent="1">
          <mxGeometry x="564.5" y="620" width="450" height="450" as="geometry" />
        </mxCell>
      </root>
    </mxGraphModel>
  </diagram>
</mxfile>
